<svg version="1.1" xmlns="http://www.w3.org/2000/svg" xmlns:xlink="http://www.w3.org/1999/xlink" width="112.32064" height="112.28558" viewBox="0,0,112.32064,112.28558"><g transform="translate(-183.83968,-123.85721)"><g stroke="none" stroke-miterlimit="10"><path d="M194.59581,125.43598c0.47952,0.14442 0.95911,0.28862 1.43876,0.43259c1.02959,0.30948 2.05875,0.62035 3.08758,0.93233c2.50155,0.75841 5.00536,1.50933 7.50888,2.26122c0.87162,0.26187 1.74317,0.52401 2.61469,0.78619c5.66431,1.70306 11.33821,3.37293 17.01403,5.03715c2.34456,0.6876 4.68881,1.3763 7.03305,2.06501c0.2569,0.07547 0.5138,0.15094 0.77849,0.22869c3.82876,1.1249 7.65613,2.25443 11.48217,3.38855c0.37231,0.11036 0.37231,0.11036 0.75215,0.22294c2.70219,0.80113 5.40383,1.60409 8.10468,2.40974c0.95775,0.2856 1.91554,0.57111 2.87332,0.85659c0.23552,0.07022 0.47104,0.14045 0.7137,0.21281c3.19869,0.95324 6.40131,1.89196 9.60772,2.81889c1.72872,0.49982 3.4562,1.00382 5.1834,1.50885c1.16531,0.3404 2.3314,0.67762 3.49885,1.0106c1.27597,0.36411 2.54942,0.736 3.82261,1.10969c0.37642,0.10514 0.75285,0.21027 1.14068,0.3186c1.9398,0.57852 3.16677,0.98705 4.2363,2.8242c0.54741,1.09482 0.52679,1.71981 0.36805,2.94439c-1.29728,2.25935 -3.07866,3.75908 -5.19726,5.21165c-0.43084,0.30308 -0.43084,0.30308 -0.87038,0.61229c-0.91747,0.64167 -1.84026,1.27479 -2.76555,1.90512c-0.30243,0.20611 -0.60487,0.41222 -0.91647,0.62457c-2.14542,1.45618 -4.30503,2.89047 -6.46753,4.3211c-0.63338,0.4204 -1.26669,0.84092 -1.89991,1.26157c-1.15999,0.77037 -2.32045,1.54003 -3.48147,2.30885c-1.63598,1.08371 -3.26879,2.17214 -4.90101,3.2615c0.29782,1.43222 0.80345,2.03597 1.86325,3.05942c0.40494,0.3964 0.40493,0.39639 0.81805,0.80079c0.78873,0.72972 1.58746,1.43512 2.40095,2.13641c1.83404,1.59595 3.52174,3.32461 5.22314,5.05925c1.16234,1.17596 2.3304,2.31655 3.58848,3.39008c2.31416,1.99325 4.41879,4.21451 6.56308,6.3866c1.98446,2.00785 3.96703,3.9908 6.11577,5.82536c1.1383,0.99204 2.1994,2.05954 3.26231,3.13112c0.22316,0.22441 0.44633,0.44882 0.67625,0.68003c6.23654,6.30869 6.23655,6.30869 6.29369,9.28032c-0.79998,4.69886 -3.7501,8.45475 -6.99295,11.77759c-0.46685,0.48962 -0.46685,0.48962 -0.94313,0.98914c-0.29605,0.28087 -0.5921,0.56173 -0.89712,0.85111c-0.19689,0.19072 -0.39379,0.38145 -0.59665,0.57796c-2.91193,2.70004 -6.83262,5.64684 -10.92791,5.88592c-3.44451,-0.13789 -6.21747,-3.85807 -8.49103,-6.15189c-0.47396,-0.47421 -0.47395,-0.47421 -0.95749,-0.958c-0.66336,-0.66447 -1.32583,-1.32982 -1.98744,-1.99601c-1.00649,-1.01322 -2.0159,-2.02345 -3.02581,-3.03326c-0.64761,-0.64943 -1.29507,-1.29902 -1.94233,-1.94879c-0.29834,-0.29874 -0.59668,-0.5975 -0.90405,-0.90529c-1.51613,-1.52867 -2.96697,-3.08729 -4.37226,-4.71786c-1.23893,-1.39584 -2.56797,-2.70333 -3.88899,-4.0209c-0.30155,-0.3019 -0.6031,-0.6038 -0.91378,-0.91485c-0.63332,-0.63357 -1.26709,-1.26668 -1.90131,-1.89935c-0.96724,-0.96527 -1.93251,-1.93249 -2.89759,-2.89992c-0.61833,-0.61809 -1.23677,-1.23606 -1.85534,-1.8539c-0.28644,-0.28719 -0.57289,-0.57439 -0.86801,-0.87027c-2.33178,-2.67623 -2.33178,-2.67623 -5.29538,-4.16022c-3.3363,2.00999 -5.65642,7.16034 -7.66579,10.39022c-8.49669,13.63843 -8.4967,13.63843 -12.54245,15.4279c-1.19616,0.25304 -1.19617,0.25304 -2.2083,0c-3.01845,-2.20863 -3.97898,-6.21818 -4.76164,-9.68575c-0.18729,-0.78625 -0.37565,-1.57225 -0.56501,-2.358c-0.09352,-0.38985 -0.18705,-0.7797 -0.28341,-1.18136c-0.73355,-2.9708 -1.62139,-5.9005 -2.48703,-8.83488c-0.21712,-0.74034 -0.43421,-1.4807 -0.65128,-2.22106c-4.19449,-14.27026 -8.52315,-28.50221 -12.86507,-42.72819c-1.68653,-5.52634 -3.36051,-11.05624 -5.00528,-16.59517c-0.20785,-0.69959 -0.41616,-1.39904 -0.62497,-2.09834c-3.36094,-11.26465 -3.36095,-11.26465 -2.56835,-14.03876c2.9334,-3.53512 6.48037,-1.62562 10.32265,-0.45288z" fill="#56e8ff"/><path d="M194.59581,125.43598c0.47952,0.14442 0.95911,0.28862 1.43876,0.43259c1.02959,0.30948 2.05875,0.62035 3.08758,0.93233c2.50155,0.75841 5.00536,1.50933 7.50888,2.26122c0.87162,0.26187 1.74317,0.52401 2.61469,0.78619c5.66431,1.70306 11.33821,3.37293 17.01403,5.03715c2.34456,0.6876 4.68881,1.3763 7.03305,2.06501c0.2569,0.07547 0.5138,0.15094 0.77849,0.22869c3.82876,1.1249 7.65613,2.25443 11.48217,3.38855c0.37231,0.11036 0.37231,0.11036 0.75215,0.22294c2.70219,0.80113 5.40383,1.60409 8.10468,2.40974c0.95775,0.2856 1.91554,0.57111 2.87332,0.85659c0.23552,0.07022 0.47104,0.14045 0.7137,0.21281c3.19869,0.95324 6.40131,1.89196 9.60772,2.81889c1.72872,0.49982 3.4562,1.00382 5.1834,1.50885c1.16531,0.3404 2.3314,0.67762 3.49885,1.0106c1.27597,0.36411 2.54942,0.736 3.82261,1.10969c0.37642,0.10514 0.75285,0.21027 1.14068,0.3186c1.9398,0.57852 3.16677,0.98705 4.2363,2.8242c0.54741,1.09482 0.52679,1.71981 0.36805,2.94439c-1.29728,2.25935 -3.07866,3.75908 -5.19726,5.21165c-0.43084,0.30308 -0.43084,0.30308 -0.87038,0.61229c-0.91747,0.64167 -1.84026,1.27479 -2.76555,1.90512c-0.30243,0.20611 -0.60487,0.41222 -0.91647,0.62457c-2.14542,1.45618 -4.30503,2.89047 -6.46753,4.3211c-0.63338,0.4204 -1.26669,0.84092 -1.89991,1.26157c-1.15999,0.77037 -2.32045,1.54003 -3.48147,2.30885c-1.63598,1.08371 -3.26879,2.17214 -4.90101,3.2615c0.29782,1.43222 0.80345,2.03597 1.86325,3.05942c0.40494,0.3964 0.40493,0.39639 0.81805,0.80079c0.78873,0.72972 1.58746,1.43512 2.40095,2.13641c1.83404,1.59595 3.52174,3.32461 5.22314,5.05925c1.16234,1.17596 2.3304,2.31655 3.58848,3.39008c2.31416,1.99325 4.41879,4.21451 6.56308,6.3866c1.98446,2.00785 3.96703,3.9908 6.11577,5.82536c1.1383,0.99204 2.1994,2.05954 3.26231,3.13112c0.22316,0.22441 0.44633,0.44882 0.67625,0.68003c6.23654,6.30869 6.23655,6.30869 6.29369,9.28032c-0.79998,4.69886 -3.7501,8.45475 -6.99295,11.77759c-0.46685,0.48962 -0.46685,0.48962 -0.94313,0.98914c-0.29605,0.28087 -0.5921,0.56173 -0.89712,0.85111c-0.19689,0.19072 -0.39379,0.38145 -0.59665,0.57796c-2.91193,2.70004 -6.83262,5.64684 -10.92791,5.88592c-3.44451,-0.13789 -6.21747,-3.85807 -8.49103,-6.15189c-0.47396,-0.47421 -0.47395,-0.47421 -0.95749,-0.958c-0.66336,-0.66447 -1.32583,-1.32982 -1.98744,-1.99601c-1.00649,-1.01322 -2.0159,-2.02345 -3.02581,-3.03326c-0.64761,-0.64943 -1.29507,-1.29902 -1.94233,-1.94879c-0.29834,-0.29874 -0.59668,-0.5975 -0.90405,-0.90529c-1.51613,-1.52867 -2.96697,-3.08729 -4.37226,-4.71786c-1.23893,-1.39584 -2.56797,-2.70333 -3.88899,-4.0209c-0.30155,-0.3019 -0.6031,-0.6038 -0.91378,-0.91485c-0.63332,-0.63357 -1.26709,-1.26668 -1.90131,-1.89935c-0.96724,-0.96527 -1.93251,-1.93249 -2.89759,-2.89992c-0.61833,-0.61809 -1.23677,-1.23606 -1.85534,-1.8539c-0.28644,-0.28719 -0.57289,-0.57439 -0.86801,-0.87027c-2.33178,-2.67623 -2.33178,-2.67623 -5.29538,-4.16022c-3.3363,2.00999 -5.65642,7.16034 -7.66579,10.39022c-8.49669,13.63843 -8.4967,13.63843 -12.54245,15.4279c-1.19616,0.25304 -1.19617,0.25304 -2.2083,0c-3.01845,-2.20863 -3.97898,-6.21818 -4.76164,-9.68575c-0.18729,-0.78625 -0.37565,-1.57225 -0.56501,-2.358c-0.09352,-0.38985 -0.18705,-0.7797 -0.28341,-1.18136c-0.73355,-2.9708 -1.62139,-5.9005 -2.48703,-8.83488c-0.21712,-0.74034 -0.43421,-1.4807 -0.65128,-2.22106c-4.19449,-14.27026 -8.52315,-28.50221 -12.86507,-42.72819c-1.68653,-5.52634 -3.36051,-11.05624 -5.00528,-16.59517c-0.20785,-0.69959 -0.41616,-1.39904 -0.62497,-2.09834c-3.36094,-11.26465 -3.36095,-11.26465 -2.56835,-14.03876c2.9334,-3.53512 6.48037,-1.62562 10.32265,-0.45288zM186.25143,125.4748c-1.22313,1.60937 -1.0461,2.86696 -0.87412,4.83066c0.2287,1.22475 0.56778,2.39954 0.93306,3.58992c0.09905,0.33691 0.19812,0.67381 0.30017,1.02093c0.3278,1.10993 0.66283,2.21752 0.99806,3.32522c0.23773,0.7986 0.47509,1.5973 0.71211,2.3961c1.74075,5.84856 3.53071,11.68242 5.32594,17.51444c2.29852,7.47376 4.55418,14.96035 6.80422,22.44882c0.43282,1.44043 0.86621,2.88069 1.30019,4.32077c2.20206,7.30872 4.37887,14.62306 6.45109,21.9698c0.08079,0.28603 0.16158,0.57207 0.24482,0.86677c0.23281,0.8257 0.46461,1.65168 0.69579,2.47785c0.07397,0.26389 0.14794,0.52779 0.22415,0.79968c0.39824,1.4325 0.77867,2.86795 1.14089,4.31c0.11844,0.46672 0.11844,0.46672 0.23927,0.94288c0.14951,0.59241 0.29624,1.18553 0.43952,1.77948c0.56357,2.22789 1.313,4.39119 2.85259,6.13607c0.79986,0.40591 0.79986,0.40592 1.79424,0.18403c5.32316,-2.66158 8.37696,-9.05766 11.38942,-13.95139c2.08849,-3.3875 4.35562,-6.64663 6.73704,-9.83384c0.1746,-0.24528 0.34919,-0.49056 0.52907,-0.74328c0.64488,-0.86051 1.06137,-1.40867 2.13354,-1.65047c1.52852,0.2785 2.36629,1.24465 3.43322,2.30175c0.24359,0.23487 0.48719,0.46975 0.73816,0.71175c0.91818,0.89123 1.82692,1.79149 2.73531,2.69271c0.41351,0.40855 0.8271,0.81703 1.24073,1.22546c1.37596,1.35979 2.74829,2.72318 4.11899,4.08826c0.22521,0.22413 0.45043,0.44826 0.68247,0.67918c2.13249,2.12553 4.24487,4.24193 6.19825,6.53527c1.42376,1.6021 2.98015,3.08206 4.50583,4.58616c2.04005,2.01119 4.048,4.01945 5.9127,6.19557c1.93156,2.24308 4.1426,4.24595 6.41697,6.13411c0.35678,0.30364 0.71356,0.60728 1.08115,0.92012c1.63392,0.80029 2.71502,0.70372 4.4396,0.18402c6.86006,-2.85613 13.28863,-9.04403 16.17119,-15.89515c0.62093,-2.16416 0.62092,-2.16416 0.39105,-4.34759c-2.18236,-3.59498 -5.70686,-6.54154 -8.66571,-9.47755c-0.90333,-0.89659 -1.80367,-1.79611 -2.70359,-2.69613c-0.58065,-0.57885 -1.16148,-1.15753 -1.74248,-1.73602c-0.39808,-0.39747 -0.39809,-0.39747 -0.80421,-0.80297c-1.47972,-1.46613 -2.99673,-2.86519 -4.57349,-4.22625c-0.79439,-0.69478 -1.54272,-1.42534 -2.28234,-2.17794c-0.27612,-0.27897 -0.55225,-0.55794 -0.83674,-0.84536c-0.56166,-0.57125 -1.12332,-1.14249 -1.68498,-1.71373c-1.52976,-1.54552 -3.08812,-3.01949 -4.73721,-4.43672c-1.01027,-0.88801 -1.94702,-1.84082 -2.88545,-2.80351c-1.46776,-1.4882 -2.9583,-2.91815 -4.55606,-4.26852c-0.19689,-0.17032 -0.39378,-0.34064 -0.59664,-0.51613c-0.21587,-0.17412 -0.43174,-0.34824 -0.65415,-0.52764c-0.45,-0.57652 -0.45,-0.57651 -0.39456,-1.26921c0.42624,-1.06283 0.9803,-1.39793 1.91995,-2.05042c0.36757,-0.25644 0.73514,-0.51287 1.11386,-0.77708c0.44191,-0.29961 0.88441,-0.59834 1.32736,-0.8964c0.37773,-0.25491 0.37774,-0.25491 0.7631,-0.51496c2.394,-1.61149 4.80141,-3.20266 7.20855,-4.79444c3.30212,-2.18521 6.59787,-4.37997 9.85288,-6.63496c0.25477,-0.17331 0.50955,-0.34662 0.77205,-0.52518c1.74419,-1.22075 3.25177,-2.51929 4.2225,-4.46075c0,-1.22689 -0.44164,-1.92268 -1.10415,-2.94439c-0.98064,-0.46765 -1.7908,-0.76808 -2.82399,-1.04737c-0.28864,-0.08549 -0.57728,-0.17097 -0.87467,-0.25905c-0.9598,-0.28205 -1.92265,-0.55164 -2.88598,-0.82137c-0.67748,-0.19653 -1.35474,-0.39383 -2.03177,-0.59188c-1.81093,-0.52753 -3.6247,-1.0446 -5.43916,-1.55984c-1.88037,-0.53601 -3.75786,-1.08193 -5.63554,-1.62726c-2.93737,-0.85215 -5.876,-1.69981 -8.81567,-2.544c-4.07088,-1.16977 -8.13226,-2.36929 -12.18838,-3.58929c-1.61769,-0.48625 -3.2365,-0.96879 -4.85532,-1.45127c-0.32117,-0.09577 -0.64234,-0.19152 -0.97324,-0.29019c-5.03399,-1.49954 -10.07333,-2.98109 -15.11163,-4.46605c-7.74858,-2.28381 -15.49332,-4.58018 -23.23383,-6.89123c-1.2265,-0.36601 -2.4532,-0.73132 -3.67996,-1.09646c-0.60292,-0.17969 -1.20574,-0.35975 -1.80844,-0.54017c-0.87915,-0.26312 -1.75866,-0.52501 -2.63826,-0.78663c-0.26299,-0.07905 -0.52599,-0.15809 -0.79695,-0.23954c-1.89888,-0.65648 -1.89888,-0.65648 -3.60239,0.15184z" fill="#000000"/></g></g></svg>