<svg version="1.1" xmlns="http://www.w3.org/2000/svg" xmlns:xlink="http://www.w3.org/1999/xlink" width="202.92068" height="35.37266" viewBox="0,0,202.92068,35.37266"><g transform="translate(-228.45702,-161.41437)"><g stroke-miterlimit="10"><path d="M230.15906,194.66667v-24.55693h199.96863v24.55693z" fill-opacity="0.03137" fill="#ffffff" stroke="none" stroke-width="0" stroke-linecap="butt"/><path d="M232.3798,187.96425c-0.86204,-0.808 -1.46638,-14.19363 0,-15.57143c1.37644,-1.2933 14.3941,-1.23907 15.57143,0c0.66583,0.70074 0.81412,14.44746 0,15.57143c-0.69293,0.95665 -14.92657,0.60443 -15.57143,0z" fill="none" stroke="#808080" stroke-width="2.5" stroke-linecap="butt"/><path d="M430.1277,194.3828c0,0 -11.61781,1.37904 -28.10697,1.12238c-26.16723,-0.4073 -64.43195,-1.93414 -84.18715,-1.93414c-24.89241,0 -66.17647,0.51765 -66.17647,0.51765" fill="none" stroke="#808080" stroke-width="2.5" stroke-linecap="round"/><path d="M252.01883,162.66437l-10.77341,22.35333l-11.5384,-7.67937" fill="none" stroke="#009622" stroke-width="2.5" stroke-linecap="round"/></g></g></svg>