<svg version="1.1" xmlns="http://www.w3.org/2000/svg" xmlns:xlink="http://www.w3.org/1999/xlink" width="99.40391" height="99.40391" viewBox="0,0,99.40391,99.40391"><g transform="translate(-190.29804,-130.29804)"><g stroke="none" stroke-miterlimit="10"><path d="M262.35579,162.74779l-5.10377,-5.10377c-0.97753,-0.97753 -0.97753,-2.56296 0,-3.54049l9.77711,-9.77711c0.97753,-0.97753 2.56295,-0.97753 3.54049,0l5.10377,5.10377c0.97753,0.97753 0.97753,2.56295 0,3.54049l-9.77711,9.77711c-0.97793,0.97792 -2.56295,0.97792 -3.54048,0z" fill="#fee187"/><path d="M262.35579,162.74779l-5.10377,-5.10377c-0.97753,-0.97753 -0.97753,-2.56296 0,-3.54049l9.77711,-9.77711c0.97753,-0.97753 2.56295,-0.97753 3.54049,0l5.10377,5.10377c0.97753,0.97753 0.97753,2.56295 0,3.54049l-9.77711,9.77711c-0.97793,0.97792 -2.56295,0.97792 -3.54048,0z" fill="#fee187"/><path d="M264.12584,166.34226c-1.43282,0 -2.77981,-0.55798 -3.79327,-1.57105l-5.10377,-5.10377c-1.01307,-1.01307 -1.57124,-2.36046 -1.57124,-3.79327c0,-1.43301 0.55818,-2.78039 1.57163,-3.79385l9.77672,-9.77672c1.01346,-1.01307 2.36046,-1.57105 3.79347,-1.57105c1.43282,0 2.77981,0.55799 3.79327,1.57066l5.10377,5.10416c1.01306,1.01287 1.57124,2.36007 1.57124,3.79327c0,1.43282 -0.55818,2.78001 -1.57163,3.79346l-9.77672,9.77672c-1.01306,1.01345 -2.36026,1.57144 -3.79346,1.57144zM259.52782,155.87398l4.59801,4.59821l9.27116,-9.27155l-4.59762,-4.5982z" fill="#ffc61b"/><path d="M264.12584,166.34226c-1.43282,0 -2.77981,-0.55798 -3.79327,-1.57105l-5.10377,-5.10377c-1.01307,-1.01307 -1.57124,-2.36046 -1.57124,-3.79327c0,-1.43301 0.55818,-2.78039 1.57163,-3.79385l9.77672,-9.77672c1.01346,-1.01307 2.36046,-1.57105 3.79347,-1.57105c1.43282,0 2.77981,0.55799 3.79327,1.57066l5.10377,5.10416c1.01306,1.01287 1.57124,2.36007 1.57124,3.79327c0,1.43282 -0.55818,2.78001 -1.57163,3.79346l-9.77672,9.77672c-1.01306,1.01345 -2.36026,1.57144 -3.79346,1.57144zM259.52782,155.87398l4.59801,4.59821l9.27116,-9.27155l-4.59762,-4.5982z" fill="#ffc61b"/><path d="M209.43019,215.67339l-5.10377,-5.10377c-0.97753,-0.97753 -0.97753,-2.56296 0,-3.54049l9.77711,-9.77711c0.97753,-0.97753 2.56296,-0.97753 3.54049,0l5.10377,5.10377c0.97753,0.97753 0.97753,2.56295 0,3.54048l-9.77711,9.77712c-0.97753,0.97753 -2.56256,0.97753 -3.54049,0z" fill="#fee187"/><path d="M209.43019,215.67339l-5.10377,-5.10377c-0.97753,-0.97753 -0.97753,-2.56296 0,-3.54049l9.77711,-9.77711c0.97753,-0.97753 2.56296,-0.97753 3.54049,0l5.10377,5.10377c0.97753,0.97753 0.97753,2.56295 0,3.54048l-9.77711,9.77712c-0.97753,0.97753 -2.56256,0.97753 -3.54049,0z" fill="#fee187"/><path d="M211.20063,219.26765c-1.43282,0 -2.77981,-0.55799 -3.79327,-1.57105l-5.10377,-5.10415c-1.01307,-1.01287 -1.57125,-2.36007 -1.57125,-3.79327c0,-1.43282 0.55818,-2.78 1.57163,-3.79346l9.77672,-9.77672c1.01307,-1.01307 2.36045,-1.57125 3.79346,-1.57125c1.43282,0 2.77982,0.55798 3.79327,1.57105l5.10377,5.10377c1.01307,1.01307 1.57124,2.36045 1.57124,3.79346c0,1.43282 -0.55818,2.78001 -1.57163,3.79346l-9.77672,9.77672c-1.01365,1.01326 -2.36065,1.57144 -3.79346,1.57144zM206.60262,208.79918l4.59763,4.59821l9.27155,-9.27155l-4.59801,-4.59821z" fill="#ffc61b"/><path d="M211.20063,219.26765c-1.43282,0 -2.77981,-0.55799 -3.79327,-1.57105l-5.10377,-5.10415c-1.01307,-1.01287 -1.57125,-2.36007 -1.57125,-3.79327c0,-1.43282 0.55818,-2.78 1.57163,-3.79346l9.77672,-9.77672c1.01307,-1.01307 2.36045,-1.57125 3.79346,-1.57125c1.43282,0 2.77982,0.55798 3.79327,1.57105l5.10377,5.10377c1.01307,1.01307 1.57124,2.36045 1.57124,3.79346c0,1.43282 -0.55818,2.78001 -1.57163,3.79346l-9.77672,9.77672c-1.01365,1.01326 -2.36065,1.57144 -3.79346,1.57144zM206.60262,208.79918l4.59763,4.59821l9.27155,-9.27155l-4.59801,-4.59821z" fill="#ffc61b"/><path d="M257.25182,202.35579l5.10377,-5.10377c0.97753,-0.97753 2.56295,-0.97753 3.54048,0l9.77711,9.77711c0.97753,0.97753 0.97753,2.56296 0,3.54049l-5.10377,5.10377c-0.97753,0.97753 -2.56295,0.97753 -3.54049,0l-9.77711,-9.77712c-0.97753,-0.97792 -0.97753,-2.56295 0,-3.54048z" fill="#fee187"/><path d="M257.25182,202.35579l5.10377,-5.10377c0.97753,-0.97753 2.56295,-0.97753 3.54048,0l9.77711,9.77711c0.97753,0.97753 0.97753,2.56296 0,3.54049l-5.10377,5.10377c-0.97753,0.97753 -2.56295,0.97753 -3.54049,0l-9.77711,-9.77712c-0.97753,-0.97792 -0.97753,-2.56295 0,-3.54048z" fill="#fee187"/><path d="M268.79937,219.26765c-1.4332,0 -2.78001,-0.55818 -3.79347,-1.57125l-9.77711,-9.77711c-1.01307,-1.01345 -1.57124,-2.36045 -1.57124,-3.79346c0,-1.43301 0.55818,-2.7804 1.57163,-3.79386l5.10319,-5.10318c1.01365,-1.01345 2.36065,-1.57124 3.79346,-1.57124c1.4332,0 2.78039,0.55817 3.79346,1.57124l9.77712,9.77672c1.01306,1.01345 1.57124,2.36045 1.57124,3.79346c0,1.43301 -0.55818,2.7804 -1.57163,3.79386l-5.10318,5.10318c-1.01365,1.01384 -2.36065,1.57163 -3.79346,1.57163zM259.52782,204.12584l9.27155,9.27155l4.59762,-4.59821l-9.27116,-9.27155z" fill="#ffc61b"/><path d="M268.79937,219.26765c-1.4332,0 -2.78001,-0.55818 -3.79347,-1.57125l-9.77711,-9.77711c-1.01307,-1.01345 -1.57124,-2.36045 -1.57124,-3.79346c0,-1.43301 0.55818,-2.7804 1.57163,-3.79386l5.10319,-5.10318c1.01365,-1.01345 2.36065,-1.57124 3.79346,-1.57124c1.4332,0 2.78039,0.55817 3.79346,1.57124l9.77712,9.77672c1.01306,1.01345 1.57124,2.36045 1.57124,3.79346c0,1.43301 -0.55818,2.7804 -1.57163,3.79386l-5.10318,5.10318c-1.01365,1.01384 -2.36065,1.57163 -3.79346,1.57163zM259.52782,204.12584l9.27155,9.27155l4.59762,-4.59821l-9.27116,-9.27155z" fill="#ffc61b"/><path d="M204.32662,149.43019l5.10377,-5.10377c0.97753,-0.97753 2.56296,-0.97753 3.54049,0l9.77711,9.77711c0.97753,0.97753 0.97753,2.56296 0,3.54049l-5.10377,5.10377c-0.97753,0.97753 -2.56295,0.97753 -3.54048,0l-9.77712,-9.77672c-0.97753,-0.97792 -0.97753,-2.56295 0,-3.54088z" fill="#fee187"/><path d="M204.32662,149.43019l5.10377,-5.10377c0.97753,-0.97753 2.56296,-0.97753 3.54049,0l9.77711,9.77711c0.97753,0.97753 0.97753,2.56296 0,3.54049l-5.10377,5.10377c-0.97753,0.97753 -2.56295,0.97753 -3.54048,0l-9.77712,-9.77672c-0.97753,-0.97792 -0.97753,-2.56295 0,-3.54088z" fill="#fee187"/><g fill="#ffc61b"><path d="M215.87417,166.34226c-1.43301,0 -2.78039,-0.55818 -3.79346,-1.57125l-9.77711,-9.77672c-1.01307,-1.01345 -1.57125,-2.36045 -1.57125,-3.79346c0,-1.43301 0.55818,-2.7804 1.57163,-3.79385l5.10318,-5.10319c1.01365,-1.01345 2.36065,-1.57124 3.79346,-1.57124c1.43301,0 2.78001,0.55799 3.79346,1.57105l9.77711,9.77711c1.01307,1.01345 1.57124,2.36045 1.57124,3.79346c0,1.43282 -0.55818,2.78001 -1.57163,3.79346l-5.10318,5.10318c-1.01404,1.01345 -2.36104,1.57144 -3.79346,1.57144zM206.60262,151.20063l9.27117,9.27155l4.59801,-4.59802l-9.27116,-9.27174z"/><path d="M277.15707,188.97334h-6.64647c-2.95805,0 -5.36471,-2.40666 -5.36471,-5.36451v-7.21785c0,-2.95804 2.40666,-5.36451 5.36471,-5.36451h13.82665c2.95805,0 5.36471,2.40666 5.36471,5.36451v7.21785c0,1.58017 -1.28118,2.86096 -2.86097,2.86096c-1.57979,0 -2.86097,-1.28098 -2.86097,-2.86096v-6.86023h-13.11199v6.5028h6.28924c1.57979,0 2.86096,1.28099 2.86096,2.86097c0,1.58037 -1.28118,2.86097 -2.86116,2.86097z"/><path d="M209.48941,188.97334h-13.82666c-2.95804,0 -5.3647,-2.40667 -5.3647,-5.36432v-7.21785c0,-1.58017 1.28119,-2.86096 2.86097,-2.86096c1.57978,0 2.86097,1.28098 2.86097,2.86096v6.86023h13.112v-6.5028h-6.35661c-1.57978,0 -2.86097,-1.28099 -2.86097,-2.86097c0,-1.58017 1.28119,-2.86097 2.86097,-2.86097h6.71403c2.95804,0 5.3647,2.40666 5.3647,5.36451v7.21785c0,2.95765 -2.40666,5.36432 -5.3647,5.36432z"/><path d="M243.60902,229.70196h-7.21823c-1.57978,0 -2.86097,-1.2808 -2.86097,-2.86097c0,-1.58017 1.28118,-2.86097 2.86097,-2.86097h6.86061v-13.112h-6.5028v6.42417c0,1.58017 -1.28119,2.86097 -2.86097,2.86097c-1.57978,0 -2.86097,-1.2808 -2.86097,-2.86097v-6.78179c0,-2.95804 2.40646,-5.36451 5.36451,-5.36451h7.21824c2.95804,0 5.36451,2.40666 5.36451,5.36451v13.82685c-0.00058,2.95804 -2.40686,5.3647 -5.3649,5.3647z"/><path d="M243.60902,154.85411h-7.21823c-2.95804,0 -5.36451,-2.40666 -5.36451,-5.36451v-13.82724c0,-2.95785 2.40646,-5.36432 5.36451,-5.36432h7.21823c1.57978,0 2.86097,1.28099 2.86097,2.86097c0,1.57998 -1.28119,2.86097 -2.86097,2.86097h-6.86061v13.112h6.5028v-6.2541c0,-1.58017 1.28119,-2.86097 2.86097,-2.86097c1.57978,0 2.86097,1.28099 2.86097,2.86097v6.61152c0.00019,2.95804 -2.40608,5.3647 -5.36413,5.3647z"/><path d="M228.36004,182.86097h-3.61465c-1.57978,0 -2.86097,-1.28099 -2.86097,-2.86097c0,-1.58017 1.28119,-2.86097 2.86097,-2.86097h3.61465c1.57978,0 2.86097,1.28099 2.86097,2.86097c0.00019,1.58017 -1.28079,2.86097 -2.86097,2.86097z"/><path d="M241.80733,182.86097h-3.61485c-1.57978,0 -2.86097,-1.28099 -2.86097,-2.86097c0,-1.58017 1.28118,-2.86097 2.86097,-2.86097h3.61485c1.57978,0 2.86097,1.28099 2.86097,2.86097c0,1.58017 -1.2808,2.86097 -2.86097,2.86097z"/><path d="M255.25423,182.86097h-3.61465c-1.57978,0 -2.86097,-1.28099 -2.86097,-2.86097c0,-1.58017 1.28118,-2.86097 2.86097,-2.86097h3.61465c1.57979,0 2.86097,1.28099 2.86097,2.86097c0.0002,1.58017 -1.28079,2.86097 -2.86097,2.86097z"/></g><g fill="#ffc61b"><path d="M215.87417,166.34226c-1.43301,0 -2.78039,-0.55818 -3.79346,-1.57125l-9.77711,-9.77672c-1.01307,-1.01345 -1.57125,-2.36045 -1.57125,-3.79346c0,-1.43301 0.55818,-2.7804 1.57163,-3.79385l5.10318,-5.10319c1.01365,-1.01345 2.36065,-1.57124 3.79346,-1.57124c1.43301,0 2.78001,0.55799 3.79346,1.57105l9.77711,9.77711c1.01307,1.01345 1.57124,2.36045 1.57124,3.79346c0,1.43282 -0.55818,2.78001 -1.57163,3.79346l-5.10318,5.10318c-1.01404,1.01345 -2.36104,1.57144 -3.79346,1.57144zM206.60262,151.20063l9.27117,9.27155l4.59801,-4.59802l-9.27116,-9.27174z"/><path d="M277.15707,188.97334h-6.64647c-2.95805,0 -5.36471,-2.40666 -5.36471,-5.36451v-7.21785c0,-2.95804 2.40666,-5.36451 5.36471,-5.36451h13.82665c2.95805,0 5.36471,2.40666 5.36471,5.36451v7.21785c0,1.58017 -1.28118,2.86096 -2.86097,2.86096c-1.57979,0 -2.86097,-1.28098 -2.86097,-2.86096v-6.86023h-13.11199v6.5028h6.28924c1.57979,0 2.86096,1.28099 2.86096,2.86097c0,1.58037 -1.28118,2.86097 -2.86116,2.86097z"/><path d="M209.48941,188.97334h-13.82666c-2.95804,0 -5.3647,-2.40667 -5.3647,-5.36432v-7.21785c0,-1.58017 1.28119,-2.86096 2.86097,-2.86096c1.57978,0 2.86097,1.28098 2.86097,2.86096v6.86023h13.112v-6.5028h-6.35661c-1.57978,0 -2.86097,-1.28099 -2.86097,-2.86097c0,-1.58017 1.28119,-2.86097 2.86097,-2.86097h6.71403c2.95804,0 5.3647,2.40666 5.3647,5.36451v7.21785c0,2.95765 -2.40666,5.36432 -5.3647,5.36432z"/><path d="M243.60902,229.70196h-7.21823c-1.57978,0 -2.86097,-1.2808 -2.86097,-2.86097c0,-1.58017 1.28118,-2.86097 2.86097,-2.86097h6.86061v-13.112h-6.5028v6.42417c0,1.58017 -1.28119,2.86097 -2.86097,2.86097c-1.57978,0 -2.86097,-1.2808 -2.86097,-2.86097v-6.78179c0,-2.95804 2.40646,-5.36451 5.36451,-5.36451h7.21824c2.95804,0 5.36451,2.40666 5.36451,5.36451v13.82685c-0.00058,2.95804 -2.40686,5.3647 -5.3649,5.3647z"/><path d="M243.60902,154.85411h-7.21823c-2.95804,0 -5.36451,-2.40666 -5.36451,-5.36451v-13.82724c0,-2.95785 2.40646,-5.36432 5.36451,-5.36432h7.21823c1.57978,0 2.86097,1.28099 2.86097,2.86097c0,1.57998 -1.28119,2.86097 -2.86097,2.86097h-6.86061v13.112h6.5028v-6.2541c0,-1.58017 1.28119,-2.86097 2.86097,-2.86097c1.57978,0 2.86097,1.28099 2.86097,2.86097v6.61152c0.00019,2.95804 -2.40608,5.3647 -5.36413,5.3647z"/><path d="M228.36004,182.86097h-3.61465c-1.57978,0 -2.86097,-1.28099 -2.86097,-2.86097c0,-1.58017 1.28119,-2.86097 2.86097,-2.86097h3.61465c1.57978,0 2.86097,1.28099 2.86097,2.86097c0.00019,1.58017 -1.28079,2.86097 -2.86097,2.86097z"/><path d="M241.80733,182.86097h-3.61485c-1.57978,0 -2.86097,-1.28099 -2.86097,-2.86097c0,-1.58017 1.28118,-2.86097 2.86097,-2.86097h3.61485c1.57978,0 2.86097,1.28099 2.86097,2.86097c0,1.58017 -1.2808,2.86097 -2.86097,2.86097z"/><path d="M255.25423,182.86097h-3.61465c-1.57978,0 -2.86097,-1.28099 -2.86097,-2.86097c0,-1.58017 1.28118,-2.86097 2.86097,-2.86097h3.61465c1.57979,0 2.86097,1.28099 2.86097,2.86097c0.0002,1.58017 -1.28079,2.86097 -2.86097,2.86097z"/></g><g fill="#ffc61b"><path d=""/><path d=""/><path d=""/><path d=""/><path d=""/><path d="M242.86097,191.63977v3.61465c0,1.57978 -1.28099,2.86097 -2.86097,2.86097c-1.58017,0 -2.86097,-1.28118 -2.86097,-2.86097v-3.61465c0,-1.57978 1.28099,-2.86097 2.86097,-2.86097c1.58017,-0.00019 2.86097,1.2808 2.86097,2.86097z"/><path d="M242.86097,178.19248v3.61485c0,1.57978 -1.28099,2.86097 -2.86097,2.86097c-1.58017,0 -2.86097,-1.28119 -2.86097,-2.86097v-3.61485c0,-1.57978 1.28099,-2.86097 2.86097,-2.86097c1.58017,0 2.86097,1.2808 2.86097,2.86097z"/><path d="M242.86097,164.74558v3.61465c0,1.57978 -1.28099,2.86096 -2.86097,2.86096c-1.58017,0 -2.86097,-1.28118 -2.86097,-2.86096v-3.61465c0,-1.57978 1.28099,-2.86096 2.86097,-2.86096c1.58017,-0.00019 2.86097,1.28079 2.86097,2.86096z"/></g><g fill="#ffc61b"><path d=""/><path d=""/><path d=""/><path d=""/><path d=""/><path d="M242.86097,191.63977v3.61465c0,1.57978 -1.28099,2.86097 -2.86097,2.86097c-1.58017,0 -2.86097,-1.28118 -2.86097,-2.86097v-3.61465c0,-1.57978 1.28099,-2.86097 2.86097,-2.86097c1.58017,-0.00019 2.86097,1.2808 2.86097,2.86097z"/><path d="M242.86097,178.19248v3.61485c0,1.57978 -1.28099,2.86097 -2.86097,2.86097c-1.58017,0 -2.86097,-1.28119 -2.86097,-2.86097v-3.61485c0,-1.57978 1.28099,-2.86097 2.86097,-2.86097c1.58017,0 2.86097,1.2808 2.86097,2.86097z"/><path d="M242.86097,164.74558v3.61465c0,1.57978 -1.28099,2.86096 -2.86097,2.86096c-1.58017,0 -2.86097,-1.28118 -2.86097,-2.86096v-3.61465c0,-1.57978 1.28099,-2.86096 2.86097,-2.86096c1.58017,-0.00019 2.86097,1.28079 2.86097,2.86096z"/></g></g></g></svg>