<svg version="1.1" xmlns="http://www.w3.org/2000/svg" xmlns:xlink="http://www.w3.org/1999/xlink" width="966.90645" height="728.2996" viewBox="0,0,966.90645,728.2996"><g transform="translate(5.55192,362.85026)"><g fill="none" stroke="#ff0000" stroke-width="10" stroke-linecap="round" stroke-miterlimit="10"><g><path d="M98.41948,1.23901h-97.71851"/><path d="M1.40656,98.43324v-97.71851"/><path d="M0.36497,262.64573v97.71851"/><path d="M97.55918,359.65865h-97.71851"/><path d="M381.32475,0.17273h97.71851"/><path d="M478.33769,1.78101v97.71851"/><path d="M476.98617,262.73083v97.71851"/><path d="M379.79197,359.74375h97.71851"/><path d="M576.0757,0.17273h-97.71851"/><path d="M479.06278,97.36694v-97.71851"/><path d="M477.34871,360.44934v-97.71851"/><path d="M574.54292,359.74375h-97.71851"/><path d="M858.55641,-1.53679h97.71851"/><path d="M956.13252,95.65741v-97.71851"/><path d="M955.75061,262.73083v97.71851"/><path d="M956.27492,359.74375h-97.71851"/><path d="M97.32386,-356.95074h-97.71851"/><path d="M0.31091,-259.75653v-97.71851"/><path d="M-0.02761,2.10455v-97.71853"/><path d="M97.16659,1.39896h-97.71851"/><path d="M379.61068,-357.14812h97.71851"/><path d="M476.62363,-357.67242v97.71851"/><path d="M477.26606,1.03825v-97.71851"/><path d="M380.07186,0.33269h97.71851"/><path d="M574.36164,-357.14812h-97.71851"/><path d="M477.34871,-357.67242v97.71851"/><path d="M477.6286,1.03825v-97.71851"/><path d="M574.82281,0.33269h-97.71851"/><path d="M858.63601,-357.32596h97.71851"/><path d="M955.64896,-357.85026v97.71851"/><path d="M955.90565,-98.38979v97.71851"/><path d="M857.86668,-1.37684h97.71851"/></g></g></g></svg>